<svg width="73" height="91" viewBox="0 0 73 91" fill="none" xmlns="http://www.w3.org/2000/svg">
<g clip-path="url(#clip0_9_47218)">
<path fill-rule="evenodd" clip-rule="evenodd" d="M12.375 35.2964V89.6133L54.6166 65.4223V11.1047C40.5361 19.1647 26.4555 27.2287 12.375 35.2964Z" fill="white" stroke="#D3E5FB"/>
<path fill-rule="evenodd" clip-rule="evenodd" d="M19.5739 48.6394C19.479 48.6636 19.3873 48.699 19.3009 48.7449C18.9846 48.9636 18.7212 49.249 18.5294 49.5808C18.3375 49.9126 18.2221 50.2825 18.1915 50.6638C18.1843 50.7686 18.2049 50.8734 18.2512 50.9679C18.3444 50.9358 18.4356 50.8982 18.5242 50.8552C18.8432 50.6384 19.1091 50.3534 19.3025 50.0212C19.4959 49.689 19.6118 49.3179 19.6416 48.9355C19.6545 48.8318 19.631 48.727 19.5748 48.6387L19.5739 48.6394ZM18.2381 52.504C17.9651 52.5069 17.6966 52.4365 17.4607 52.3003C17.1868 52.1266 16.9651 51.8831 16.8189 51.5951C16.6726 51.3072 16.607 50.9855 16.6292 50.6638C16.6594 50.0102 16.847 49.3733 17.1763 48.8065C17.5056 48.2396 17.9672 47.7594 18.5221 47.4059C18.7858 47.2115 19.1009 47.0978 19.4289 47.0788C19.7569 47.0598 20.0833 47.1362 20.368 47.2988C20.6528 47.4614 20.8834 47.7031 21.0315 47.994C21.1797 48.2849 21.2388 48.6124 21.2018 48.9363C21.1717 49.5908 20.9832 50.2286 20.6522 50.7957C20.3213 51.3627 19.8575 51.8424 19.3002 52.1942C18.9799 52.3891 18.6138 52.496 18.2381 52.504Z" fill="#345BE4"/>
<path fill-rule="evenodd" clip-rule="evenodd" d="M19.3016 58.0176C18.9852 58.2364 18.7218 58.522 18.5299 58.8539C18.3381 59.1858 18.2227 59.5558 18.1922 59.9372C18.184 60.0419 18.2046 60.1468 18.2519 60.2406C18.3479 60.2162 18.4399 60.1783 18.5249 60.1279C18.8437 59.9126 19.1096 59.6288 19.3031 59.2978C19.4965 58.9668 19.6124 58.5969 19.6424 58.2154C19.6424 58.0176 19.5959 57.9266 19.5755 57.9122C19.4806 57.9365 19.389 57.9719 19.3025 58.0176H19.3016ZM18.2381 61.7767C17.9652 61.7785 17.6969 61.7079 17.4607 61.5724C17.1868 61.3989 16.9652 61.1554 16.8189 60.8675C16.6726 60.5797 16.607 60.2581 16.6292 59.9365C16.6602 59.2831 16.8481 58.6465 17.1774 58.0798C17.5066 57.513 17.9677 57.0327 18.5221 56.6786C18.7863 56.484 19.1021 56.3703 19.4307 56.3516C19.7592 56.3329 20.086 56.41 20.3709 56.5734C20.6558 56.7368 20.8864 56.9794 21.034 57.2711C21.1817 57.5629 21.24 57.8912 21.2018 58.2154C21.1704 58.8687 20.9812 59.5048 20.6503 60.0704C20.3194 60.6359 19.8564 61.1144 19.3002 61.4654C18.9802 61.6606 18.6137 61.768 18.2381 61.7767Z" fill="#345BE4"/>
<path fill-rule="evenodd" clip-rule="evenodd" d="M19.5739 67.7668C19.4788 67.7905 19.3871 67.826 19.3009 67.8722C18.9845 68.0909 18.721 68.3764 18.5292 68.7082C18.3373 69.04 18.222 69.4098 18.1915 69.7912C18.1842 69.8959 18.2048 70.0008 18.2512 70.0952C18.3472 70.0711 18.4391 70.0334 18.5242 69.9833C18.8432 69.7664 19.1091 69.4814 19.3025 69.1492C19.4959 68.817 19.6118 68.4461 19.6416 68.0636C19.653 67.9603 19.6296 67.8561 19.5748 67.7675L19.5739 67.7668ZM18.2381 71.6314C17.965 71.6341 17.6965 71.5635 17.4606 71.427C17.1869 71.2534 16.9651 71.01 16.8188 70.7221C16.6726 70.4343 16.6071 70.1127 16.6292 69.7912C16.6601 69.1377 16.8481 68.5011 17.1773 67.9344C17.5066 67.3676 17.9676 66.8873 18.5221 66.5332C18.7857 66.3389 19.1008 66.2253 19.4287 66.2062C19.7566 66.1872 20.083 66.2636 20.3677 66.4261C20.6524 66.5886 20.883 66.8301 21.0312 67.1209C21.1794 67.4117 21.2386 67.7391 21.2018 68.0629C21.1717 68.7175 20.9832 69.3553 20.6522 69.9223C20.3212 70.4894 19.8575 70.9691 19.3002 71.3208C18.9799 71.5159 18.6131 71.6228 18.2373 71.6306L18.2381 71.6314Z" fill="#345BE4"/>
<path fill-rule="evenodd" clip-rule="evenodd" d="M24.7933 47.7027C24.6554 47.7038 24.5199 47.6683 24.4006 47.5998C24.2813 47.5314 24.1826 47.4325 24.1148 47.3135C24.0123 47.1346 23.9849 46.9229 24.0386 46.7242C24.0923 46.5255 24.2228 46.3558 24.4017 46.2518L48.8793 32.2364C49.0583 32.134 49.2709 32.1063 49.4704 32.1595C49.67 32.2127 49.84 32.3423 49.9432 32.5198C50.0464 32.6974 50.0743 32.9083 50.0207 33.1063C49.9671 33.3042 49.8364 33.473 49.6574 33.5754L25.1798 47.5973C25.0621 47.6644 24.929 47.7006 24.7933 47.7027Z" fill="#345BE4"/>
<path fill-rule="evenodd" clip-rule="evenodd" d="M24.7933 57.5496C24.656 57.552 24.5205 57.5178 24.4012 57.4505C24.2818 57.3831 24.183 57.2851 24.1148 57.1668C24.0123 56.988 23.9849 56.7763 24.0386 56.5776C24.0923 56.3789 24.2228 56.2092 24.4017 56.1052L48.8793 42.0839C49.0586 41.9888 49.268 41.9666 49.4635 42.0222C49.659 42.0778 49.8249 42.2067 49.9262 42.3817C50.0274 42.5566 50.0559 42.7638 50.0058 42.9593C49.9556 43.1548 49.8307 43.3232 49.6574 43.4288L25.1798 57.4506C25.0616 57.5157 24.9285 57.5498 24.7933 57.5496Z" fill="#345BE4"/>
<path fill-rule="evenodd" clip-rule="evenodd" d="M24.7964 66.8293C24.6585 66.8304 24.5229 66.7947 24.4036 66.7262C24.2842 66.6576 24.1856 66.5585 24.1179 66.4393C24.016 66.2603 23.9889 66.0488 24.0426 65.8503C24.0962 65.6517 24.2263 65.482 24.4048 65.3776L41.8491 55.3863C42.0288 55.2855 42.2414 55.2591 42.4406 55.313C42.6398 55.3668 42.8097 55.4965 42.913 55.6738C43.0163 55.8512 43.0448 56.0618 42.9925 56.2599C42.9401 56.4581 42.8109 56.6277 42.6331 56.7319L25.1822 66.7238C25.0659 66.7936 24.9323 66.8302 24.7964 66.8293Z" fill="#345BE4"/>
<path d="M55.5497 1.09996L59.5377 3.38432C59.6194 3.44098 59.6843 3.51828 59.7259 3.60816C59.7675 3.69804 59.7842 3.79725 59.7743 3.89566V23.9626C59.7743 33.2706 45.9197 48.4113 45.3278 49.0533C45.2351 49.1547 45.1279 49.242 45.0097 49.3126C44.9141 49.3714 44.8059 49.4068 44.6938 49.4158C44.3102 49.439 38.3252 49.7539 34.1814 47.4175L30.1461 45.1064C28.9471 44.4916 27.9467 43.5543 27.2595 42.4019C26.5723 41.2494 26.226 39.9283 26.2601 38.5897V18.5221C26.2857 18.2477 26.3735 17.9827 26.5169 17.7469C26.6604 17.511 26.8558 17.3103 27.0885 17.16C32.6213 13.9945 37.7756 9.51022 40.5485 5.46C40.8288 5.0505 41.2213 4.8295 41.5023 4.91472C44.2687 5.78861 49.4236 4.36875 55.0001 1.17436C55.076 1.11019 55.169 1.06913 55.2678 1.05632C55.3666 1.0435 55.467 1.05939 55.557 1.10207L55.5497 1.09996Z" fill="white"/>
<path d="M27.082 17.1577C32.6148 13.9922 37.769 9.50785 40.542 5.45763C40.8222 5.04813 41.2147 4.82713 41.4957 4.91235C44.2621 5.78624 49.4171 4.36638 54.9943 1.172C55.07 1.10788 55.1629 1.06694 55.2616 1.05412C55.3603 1.0413 55.4608 1.05717 55.5506 1.09979L59.5384 3.38415C59.4492 3.34277 59.3499 3.32763 59.2523 3.34042C59.1546 3.35322 59.0628 3.39341 58.9874 3.45636C53.4088 6.65074 48.2589 8.07141 45.4874 7.1968C45.2057 7.10869 44.8147 7.33395 44.5337 7.74129C41.7615 11.7937 36.6058 16.2766 31.0737 19.4413C30.8406 19.5911 30.6449 19.7916 30.5016 20.0276C30.3583 20.2636 30.2711 20.529 30.2467 20.8034V40.874C30.2132 42.2228 30.5655 43.5534 31.2628 44.7118C31.9601 45.8702 32.9737 46.809 34.1865 47.4195H34.1816L30.1461 45.1083C28.9471 44.4935 27.9467 43.5562 27.2595 42.4038C26.5723 41.2514 26.226 39.9303 26.2601 38.5918V18.5191C26.285 18.2454 26.3718 17.9808 26.5141 17.7451C26.6564 17.5094 26.8505 17.3086 27.082 17.1577Z" fill="#4069FA"/>
<path d="M43.6595 49.7654C44.2696 49.7654 44.6532 49.7437 44.7144 49.7394C44.8786 49.7273 45.0375 49.6766 45.1781 49.5914C45.3238 49.5053 45.4561 49.3985 45.5705 49.2743C46.1682 48.6243 60.1073 33.3991 60.1051 23.9604V3.89567C60.116 3.73975 60.0845 3.58375 60.0139 3.44401C59.9434 3.30427 59.8364 3.18593 59.7039 3.10124L55.7159 0.816789L55.6962 0.806739C55.555 0.738781 55.3975 0.711407 55.2414 0.727746C55.0853 0.744085 54.937 0.803433 54.8132 0.899132C49.3576 4.02563 44.2827 5.44913 41.5971 4.60052C41.3329 4.5617 41.0631 4.60562 40.8253 4.72615C40.5876 4.84668 40.3937 5.03784 40.2706 5.27293C37.5224 9.28849 32.4082 13.7345 26.9176 16.8755C26.6348 17.0542 26.3979 17.2957 26.2255 17.581C26.0532 17.8663 25.9501 18.1876 25.9246 18.5193V38.5905C25.8866 39.9831 26.2443 41.3584 26.9569 42.5589C27.6695 43.7594 28.7082 44.7368 29.9542 45.3794L29.9768 45.3938L34.0128 47.7049C34.0287 47.7138 34.0451 47.7216 34.0622 47.7281C37.3142 49.538 41.6742 49.7654 43.6595 49.7654ZM55.4029 1.39099L59.3734 3.666C59.409 3.68695 59.4462 3.76492 59.4462 3.89276V23.9611C59.4462 33.1485 45.6724 48.1961 45.0849 48.8309C45.0148 48.9078 44.9339 48.9741 44.8446 49.028C44.7929 49.0606 44.7345 49.0811 44.6737 49.088C44.4203 49.1039 38.4251 49.4339 34.3425 47.1329C34.3282 47.1249 34.3135 47.118 34.2982 47.112L30.3269 44.8363L30.3036 44.8211C29.1553 44.2344 28.197 43.3384 27.5386 42.2359C26.8802 41.1335 26.5485 39.8693 26.5814 38.5883V18.517C26.6065 18.2994 26.679 18.0899 26.7939 17.9028C26.9088 17.7158 27.0634 17.5557 27.2468 17.4337C32.8145 14.2458 38.0132 9.7233 40.8131 5.63263C41.0315 5.31558 41.2963 5.18772 41.3953 5.21589C44.2506 6.11722 49.5236 4.67352 55.1547 1.44591C55.2726 1.37369 55.3511 1.35701 55.3788 1.37362L55.3999 1.38808L55.4029 1.39099Z" fill="#345BE4"/>
<path d="M45.012 31.6413L53.9665 16.1294L52.755 15.4375L45.0113 28.8708L40.2356 26.1408L39.0234 28.2165L45.012 31.6413Z" fill="#345BE4"/>
</g>
<defs>
<clipPath id="clip0_9_47218">
<rect width="72.8" height="91" fill="white"/>
</clipPath>
</defs>
</svg>
